# xmcd
#
# Track frame offsets: 
#        150
#        16016
#        18575
#        24871
#        33656
#        49726
#        57089
#        65001
#        83441
#        104830
#        119572
#        140204
#        157545
#
# Disc length: 2332 seconds
#
# Revision: 0
# Processed by: cddbd v1.5.2PL0 Copyright (c) Steve Scherf et al.
# Submitted via: ExactAudioCopy v0.95a5
#
DISCID=a4091a0d
DTITLE=Memphis Slim - Blue Memphis
DYEAR=2005
DGENRE=Blues
TTITLE0=Born In Memphis Tennessee
TTITLE1=Chicago
TTITLE2=Me And My Piano
TTITLE3=Handyman
TTITLE4=Feel Like Screaming And Crying
TTITLE5=Riding On The Blues Train
TTITLE6=Boogin' And Bluesin'
TTITLE7=Wind Gonna Rise
TTITLE8=Youth Wants To Know
TTITLE9=Boogie Woogie 1-9-7-0
TTITLE10=Otis Spann And Earl Hooker
TTITLE11=Chicago Seven
TTITLE12=Mason Dixon Line
EXTD=
EXTT0=
EXTT1=
EXTT2=
EXTT3=
EXTT4=
EXTT5=
EXTT6=
EXTT7=
EXTT8=
EXTT9=
EXTT10=
EXTT11=
EXTT12=
PLAYORDER=
